<svg width="26" height="21" viewBox="0 0 26 21" fill="none" xmlns="http://www.w3.org/2000/svg">
<path d="M5.57489 3.8125H22.2539C24.0191 3.8125 25.3254 5.49506 24.9285 7.25742L23.4505 13.8199C23.1631 15.096 22.054 16 20.7758 16H10.5035C9.22526 16 8.11623 15.096 7.82881 13.8199L5.57489 3.8125ZM5.57489 3.8125L5.28555 2.92311C4.91192 1.77465 3.86298 1 2.68148 1H1M21 7H18" stroke="#131123" stroke-linecap="round"/>
<path d="M11.7692 19.4286C11.7692 20.2175 11.1493 20.8571 10.3846 20.8571C9.61991 20.8571 9 20.2175 9 19.4286C9 18.6396 9.61991 18 10.3846 18C11.1493 18 11.7692 18.6396 11.7692 19.4286Z" fill="#131123"/>
<path d="M21 19.4286C21 20.2175 20.3801 20.8571 19.6154 20.8571C18.8507 20.8571 18.2308 20.2175 18.2308 19.4286C18.2308 18.6396 18.8507 18 19.6154 18C20.3801 18 21 18.6396 21 19.4286Z" fill="#131123"/>
</svg>
