<svg width="100" height="100" viewBox="0 0 100 100" fill="none" xmlns="http://www.w3.org/2000/svg">
<rect width="100" height="100" rx="8" fill="#DDEAF3"/>
<path d="M26.0155 43.9553C26.1428 45.2323 27.4555 48.0267 28.0873 49.3222C28.2048 49.6692 28.2783 50.2568 27.9061 51.0526C27.2351 52.4452 26.133 54.8788 26.0155 56.0493C25.849 57.7334 27.0147 58.5431 30.0073 56.0493C33.0048 53.5509 34.9149 50.5806 36.7418 51.7049C38.5737 52.8246 38.5737 55.0037 46.7237 59.0982V66.015C46.7237 66.015 46.709 68.2312 49.731 66.015C49.731 66.015 55.4615 61.8048 56.7056 60.4677C61.2018 60.1439 68.6858 58.5338 72.9372 52.7737C73.4857 52.0288 74 50.9323 74 49.9977C74 49.0677 73.4857 47.9712 72.9372 47.231C68.6858 41.4708 61.2067 39.8515 56.7056 39.5323C55.4615 38.1906 49.731 33.985 49.731 33.985C46.7041 31.7688 46.7237 33.985 46.7237 33.985V40.9018C38.5785 45.0009 38.5785 47.1754 36.7467 48.2997C34.9149 49.424 33.0048 46.4491 30.0122 43.9553C27.0147 41.4616 25.849 42.262 26.0155 43.9553Z" fill="#303030"/>
</svg>
