<svg width="18" height="18" viewBox="0 0 18 18" fill="none" xmlns="http://www.w3.org/2000/svg">
<path d="M4.03213 3.21576L3.79996 2.77294L4.03213 3.21576ZM4.03213 14.7842L4.26431 14.3414L4.03213 14.7842ZM11.786 15.9282L12.0182 16.371L11.786 15.9282ZM6.21395 15.9282L5.98177 16.371L6.21395 15.9282ZM9 17V17.5V17ZM13.9679 14.7842L13.7357 14.3414V14.3414L13.9679 14.7842ZM13.9679 3.21576L14.2 2.77294L13.9679 3.21576ZM11.786 2.07182L11.5539 2.51464L11.786 2.07182ZM6.21395 2.07182L5.98178 1.62899L6.21395 2.07182ZM11.5539 2.51464L13.7357 3.65859L14.2 2.77294L12.0182 1.62899L11.5539 2.51464ZM16.5 8.1255V9.8745H17.5V8.1255H16.5ZM13.7357 14.3414L11.5539 15.4854L12.0182 16.371L14.2 15.2271L13.7357 14.3414ZM6.44613 15.4854L4.26431 14.3414L3.79996 15.2271L5.98177 16.371L6.44613 15.4854ZM1.5 9.8745V8.1255H0.5V9.8745H1.5ZM4.26431 3.65859L6.44613 2.51464L5.98178 1.62899L3.79996 2.77294L4.26431 3.65859ZM1.5 8.1255C1.5 7.30601 1.50063 6.72954 1.54823 6.27443C1.59457 5.83141 1.68221 5.54496 1.83298 5.30082L0.982154 4.77538C0.725359 5.19119 0.609212 5.63929 0.553659 6.1704C0.49937 6.68943 0.5 7.32669 0.5 8.1255H1.5ZM3.79996 2.77294C3.06965 3.15584 2.4897 3.45928 2.0439 3.75216C1.58938 4.05077 1.23824 4.36071 0.982154 4.77538L1.83298 5.30082C1.98446 5.05554 2.2066 4.84178 2.59298 4.58793C2.98807 4.32837 3.51662 4.05061 4.26431 3.65859L3.79996 2.77294ZM4.26431 14.3414C3.51662 13.9494 2.98807 13.6716 2.59298 13.4121C2.2066 13.1582 1.98446 12.9445 1.83298 12.6992L0.982154 13.2246C1.23824 13.6393 1.58938 13.9492 2.0439 14.2478C2.4897 14.5407 3.06965 14.8442 3.79996 15.2271L4.26431 14.3414ZM0.5 9.8745C0.5 10.6733 0.49937 11.3106 0.553659 11.8296C0.609212 12.3607 0.725359 12.8088 0.982154 13.2246L1.83298 12.6992C1.68221 12.455 1.59457 12.1686 1.54823 11.7256C1.50063 11.2705 1.5 10.694 1.5 9.8745H0.5ZM11.5539 15.4854C10.8645 15.8468 10.3769 16.1019 9.96961 16.2698C9.57195 16.4337 9.28331 16.5 9 16.5V17.5C9.45849 17.5 9.88146 17.3877 10.3507 17.1943C10.8103 17.0049 11.3448 16.7241 12.0182 16.371L11.5539 15.4854ZM5.98177 16.371C6.65521 16.7241 7.18972 17.0049 7.64934 17.1943C8.11854 17.3877 8.54151 17.5 9 17.5V16.5C8.71669 16.5 8.42805 16.4337 8.03039 16.2698C7.62314 16.1019 7.13552 15.8468 6.44613 15.4854L5.98177 16.371ZM16.5 9.8745C16.5 10.694 16.4994 11.2705 16.4518 11.7256C16.4054 12.1686 16.3178 12.455 16.167 12.6992L17.0178 13.2246C17.2746 12.8088 17.3908 12.3607 17.4463 11.8296C17.5006 11.3106 17.5 10.6733 17.5 9.8745H16.5ZM14.2 15.2271C14.9303 14.8442 15.5103 14.5407 15.9561 14.2478C16.4106 13.9492 16.7618 13.6393 17.0178 13.2246L16.167 12.6992C16.0155 12.9445 15.7934 13.1582 15.407 13.4121C15.0119 13.6716 14.4834 13.9494 13.7357 14.3414L14.2 15.2271ZM13.7357 3.65859C14.4834 4.05061 15.0119 4.32837 15.407 4.58793C15.7934 4.84178 16.0155 5.05554 16.167 5.30082L17.0178 4.77538C16.7618 4.36071 16.4106 4.05077 15.9561 3.75216C15.5103 3.45928 14.9304 3.15584 14.2 2.77294L13.7357 3.65859ZM17.5 8.1255C17.5 7.32669 17.5006 6.68943 17.4463 6.1704C17.3908 5.63929 17.2746 5.19119 17.0178 4.77538L16.167 5.30082C16.3178 5.54496 16.4054 5.83141 16.4518 6.27443C16.4994 6.72954 16.5 7.30601 16.5 8.1255H17.5ZM12.0182 1.62899C11.3448 1.2759 10.8103 0.995106 10.3507 0.805677C9.88146 0.612298 9.45849 0.5 9 0.5V1.5C9.28331 1.5 9.57195 1.56634 9.96961 1.73023C10.3769 1.89807 10.8645 2.15319 11.5539 2.51464L12.0182 1.62899ZM6.44613 2.51464C7.13553 2.15318 7.62314 1.89807 8.03039 1.73023C8.42805 1.56634 8.71669 1.5 9 1.5V0.5C8.54151 0.5 8.11854 0.612298 7.64934 0.805676C7.18972 0.995105 6.65521 1.2759 5.98178 1.62899L6.44613 2.51464ZM11.4091 9C11.4091 10.2498 10.3493 11.2963 9 11.2963V12.2963C10.864 12.2963 12.4091 10.839 12.4091 9H11.4091ZM9 11.2963C7.65068 11.2963 6.59091 10.2498 6.59091 9H5.59091C5.59091 10.839 7.13603 12.2963 9 12.2963V11.2963ZM6.59091 9C6.59091 7.75023 7.65068 6.70369 9 6.70369V5.70369C7.13603 5.70369 5.59091 7.16105 5.59091 9H6.59091ZM9 6.70369C10.3493 6.70369 11.4091 7.75023 11.4091 9H12.4091C12.4091 7.16105 10.864 5.70369 9 5.70369V6.70369Z" fill="black"/>
</svg>
